<svg width="60" height="60" viewBox="0 0 60 60" fill="none" xmlns="http://www.w3.org/2000/svg">
<g clip-path="url(#clip0_2_107)">
<path d="M17.605 42.2399H11.035V32.8549H6.77V42.2399H0.025L0 18.0499H6.77V27.0499H11.035V18.0499H17.605V42.2399ZM47.7125 42.3549C54.4875 42.3499 60 36.7224 60 29.9449C60.0099 28.328 59.699 26.7251 59.0852 25.2291C58.4713 23.7331 57.5668 22.3738 56.424 21.2298C55.2812 20.0858 53.9228 19.1799 52.4274 18.5646C50.9321 17.9492 49.3295 17.6366 47.7125 17.6449C40.945 17.6399 37.4875 22.6224 36.6325 24.6324C36.64 21.6149 33.665 18.0524 30.1825 18.0474H18.975V42.2324L29.4275 42.2349C33.6425 42.2349 36.6425 38.5849 36.6475 35.4524C37.61 37.4224 40.9475 42.3574 47.715 42.3524L47.7125 42.3549ZM28.55 32.5149C29.5175 32.5149 30.28 33.4699 30.28 34.5574C30.28 35.6449 29.5175 36.5999 28.55 36.5999H25.225V32.5149H28.55ZM28.5625 23.4324C29.53 23.4324 30.2925 24.3874 30.2925 25.4749C30.2925 26.5649 29.53 27.5199 28.5625 27.5199H25.2375V23.4324H28.5625ZM32.9875 29.9499C33.75 29.8524 35.02 28.9824 35.4675 28.4249C35.31 29.1149 35.2975 31.1099 35.4825 31.7999C34.9725 31.0149 33.7625 30.0474 32.9875 29.9499ZM41.5625 29.9499C41.5625 29.1416 41.7217 28.3413 42.031 27.5945C42.3403 26.8478 42.7937 26.1692 43.3653 25.5977C43.9368 25.0261 44.6153 24.5728 45.3621 24.2635C46.1088 23.9541 46.9092 23.7949 47.7175 23.7949C48.5258 23.7949 49.3262 23.9541 50.0729 24.2635C50.8197 24.5728 51.4982 25.0261 52.0697 25.5977C52.6413 26.1692 53.0947 26.8478 53.404 27.5945C53.7133 28.3413 53.8725 29.1416 53.8725 29.9499C53.8725 31.5827 53.2239 33.1485 52.0694 34.3031C50.9149 35.4576 49.349 36.1062 47.7163 36.1062C46.0835 36.1062 44.5176 35.4576 43.3631 34.3031C42.2086 33.1485 41.56 31.5827 41.56 29.9499H41.5625ZM47.7175 34.7899C49.0011 34.7899 50.2322 34.28 51.1399 33.3723C52.0476 32.4647 52.5575 31.2336 52.5575 29.9499C52.5575 28.6663 52.0476 27.4352 51.1399 26.5275C50.2322 25.6199 49.0011 25.1099 47.7175 25.1099C46.4339 25.1099 45.2028 25.6199 44.2951 26.5275C43.3874 27.4352 42.8775 28.6663 42.8775 29.9499C42.8775 31.2336 43.3874 32.4647 44.2951 33.3723C45.2028 34.28 46.4339 34.7899 47.7175 34.7899Z" fill="white"/>
</g>
<defs>
<clipPath id="clip0_2_107">
<rect width="60" height="60" fill="white"/>
</clipPath>
</defs>
</svg>
