<svg width="60" height="60" viewBox="0 0 60 60" fill="none" xmlns="http://www.w3.org/2000/svg">
<path d="M29.9875 0C13.4525 0 0 13.455 0 29.99C0 46.54 13.4525 60 29.9875 60C46.5375 60 60 46.5375 60 29.99C60 13.455 46.5375 0 29.9875 0ZM14.77 41.01C18.2036 39.9582 21.774 39.4207 25.365 39.415C31.4 39.415 37.3575 40.945 42.595 43.84C42.9075 44.01 43.19 44.57 43.32 45.27C43.445 45.97 43.395 46.6875 43.19 47.06C43.0934 47.2372 42.9626 47.3934 42.8051 47.5197C42.6477 47.6459 42.4668 47.7397 42.2728 47.7955C42.0789 47.8513 41.8758 47.8681 41.6753 47.8448C41.4749 47.8216 41.281 47.7587 41.105 47.66C37.258 45.5496 33.0263 44.2333 28.661 43.7893C24.2957 43.3452 19.8857 43.7825 15.6925 45.075C15.5 45.1372 15.297 45.1606 15.0955 45.1436C14.8939 45.1266 14.6976 45.0697 14.5183 44.9762C14.3389 44.8827 14.1799 44.7544 14.0506 44.5988C13.9212 44.4432 13.8242 44.2635 13.765 44.07C13.4975 43.195 14.05 41.245 14.77 41.01ZM13.4625 29.96C17.3414 28.9062 21.343 28.3724 25.3625 28.3725C32.5975 28.3725 39.78 30.1225 46.1375 33.4375C46.585 33.6625 46.9125 34.0475 47.0625 34.5175C47.1383 34.7549 47.1659 35.005 47.1436 35.2531C47.1212 35.5013 47.0495 35.7425 46.9325 35.9625C46.365 37.0725 45.7 37.82 45.2825 37.82C44.9779 37.8187 44.678 37.745 44.4075 37.605C38.5305 34.5367 31.9947 32.9459 25.365 32.97C21.6773 32.9626 18.0056 33.4546 14.45 34.4325C14.2128 34.4973 13.9652 34.5148 13.7212 34.484C13.4772 34.4531 13.2417 34.3745 13.0282 34.2526C12.8146 34.1307 12.6271 33.968 12.4764 33.7736C12.3258 33.5793 12.2148 33.3572 12.15 33.12C11.87 32.065 12.5125 30.22 13.4625 29.96V29.96ZM13.125 22.745C12.8436 22.8172 12.5507 22.833 12.2632 22.7914C11.9757 22.7498 11.6992 22.6517 11.4498 22.5027C11.2004 22.3537 10.983 22.1568 10.8101 21.9234C10.6372 21.6899 10.5123 21.4245 10.4425 21.1425C10.135 19.8975 10.9125 18.4525 12.0425 18.1675C16.4013 17.0939 20.8735 16.5492 25.3625 16.545C33.9875 16.545 42.2525 18.485 49.9225 22.3125C50.4495 22.5745 50.8509 23.0351 51.0384 23.593C51.2259 24.1509 51.1842 24.7604 50.9225 25.2875C50.565 26.0075 49.79 26.7825 48.935 26.7825C48.5997 26.7813 48.2687 26.707 47.965 26.565C40.9514 23.0466 33.2091 21.226 25.3625 21.25C21.275 21.25 17.1575 21.7525 13.125 22.745Z" fill="white"/>
</svg>
