<svg width="40" height="40" viewBox="0 0 40 40" fill="none" xmlns="http://www.w3.org/2000/svg">
<g clip-path="url(#clip0_2_139)">
<path d="M31.1649 18.2645C29.9159 17.0286 29.5741 13.3473 31.1649 11.7171L31.6382 11.1648L32.1115 11.6382C33.6367 12.8477 34.5044 14.2151 34.7147 15.7402C36.8363 15.0951 38.3946 15.5172 40 16.529C38.9592 18.7038 37.3552 20.0676 33.7681 19.9211C30.5204 28.0106 23.5393 32.8583 13.1791 32.9371C7.70977 32.9371 3.7918 30.965 1.42516 26.8629C0.110156 24.4465 -0.168204 22.7054 0.0842961 19.3689H3.55523V15.188H7.65703V11.0859H15.8611V7.06287H20.752V15.188H24.854V19.3689C27.6657 19.4504 29.4124 19.2767 31.1648 18.2645H31.1649ZM7.26274 16.1346H7.49938V19.1322H7.26266V16.1346H7.26274ZM6.71055 16.1346H7.0261V19.1322H6.71047V16.1346H6.71055ZM6.15836 16.1346H6.47391V19.1322H6.15828V16.1346H6.15836ZM5.60617 16.1346H5.92164V19.1322H5.60625V16.1346H5.60617ZM5.13281 16.1346H5.36953V19.1322H5.13281V16.1346ZM4.58063 16.1346H4.81734V19.1322H4.58063V16.1346ZM4.26508 15.8979V19.4478H7.81492V15.8979H4.26508V15.8979ZM11.3648 12.1115H11.6014V15.0302H11.3647V12.1115H11.3648ZM10.8126 12.1115H11.0492V15.0302H10.8125V12.1115H10.8126ZM10.2603 12.1115H10.5759V15.0302H10.2603V12.1115ZM9.70813 12.1115H10.0238V15.0302H9.70813V12.1115ZM9.15594 12.1115H9.47156V15.0302H9.15594V12.1115ZM8.68266 12.1115H8.91938V15.0302H8.68266V12.1115ZM8.36711 11.7959V15.3458H11.917V11.7959H8.36711ZM11.3648 16.1346H11.6014V19.1322H11.3647V16.1346H11.3648ZM10.8126 16.1346H11.0492V19.1322H10.8125V16.1346H10.8126ZM10.2603 16.1346H10.5759V19.1322H10.2603V16.1346ZM9.70813 16.1346H10.0238V19.1322H9.70813V16.1346ZM9.15594 16.1346H9.47156V19.1322H9.15594V16.1346ZM8.68266 16.1346H8.91938V19.1322H8.68266V16.1346ZM8.36711 15.8979V19.4478H11.917V15.8979H8.36711V15.8979ZM15.3879 16.1347H15.7034V19.1322H15.3878V16.1346L15.3879 16.1347ZM14.9145 16.1347H15.1513V19.1322H14.9145V16.1346V16.1347ZM14.3623 16.1347H14.5991V19.1322H14.3623V16.1346V16.1347ZM13.8102 16.1347H14.1258V19.1322H13.8102V16.1346V16.1347ZM13.258 16.1347H13.5736V19.1322H13.258V16.1346V16.1347ZM12.7058 16.1347H13.0213V19.1322H12.7058V16.1346V16.1347ZM12.4691 15.8979V19.4478H16.019V15.8979H12.4691H12.4691ZM15.3878 12.1115H15.7034V15.0302H15.3878V12.1115ZM14.9145 12.1115H15.1513V15.0302H14.9145V12.1115ZM14.3623 12.1115H14.5991V15.0302H14.3623V12.1115ZM13.8102 12.1115H14.1258V15.0302H13.8102V12.1115ZM13.258 12.1115H13.5736V15.0302H13.258V12.1115ZM12.7058 12.1115H13.0213V15.0302H12.7058V12.1115ZM12.4691 11.7959V15.3458H16.019V11.7959H12.4691H12.4691ZM19.4899 16.1346H19.8055V19.1322H19.4898V16.1346H19.4899ZM18.9377 16.1346H19.2532V19.1322H18.9377V16.1346ZM18.4644 16.1346H18.7011V19.1322H18.4644V16.1346ZM17.9122 16.1346H18.1489V19.1322H17.9122V16.1346ZM17.36 16.1346H17.6756V19.1322H17.36V16.1346ZM16.8078 16.1346H17.1234V19.1322H16.8077V16.1346H16.8078ZM16.5711 15.8979V19.4478H20.0421V15.8979H16.5711V15.8979ZM19.4898 12.1115H19.8055V15.0302H19.4898V12.1115ZM18.9377 12.1115H19.2532V15.0302H18.9377V12.1115ZM18.4644 12.1115H18.7011V15.0302H18.4644V12.1115ZM17.9122 12.1115H18.1489V15.0302H17.9122V12.1115ZM17.36 12.1115H17.6756V15.0302H17.36V12.1115ZM16.8078 12.1115H17.1234V15.0302H16.8077V12.1115H16.8078ZM16.5711 11.7959V15.3458H20.0421V11.7959H16.5711V11.7959ZM19.4898 8.00943H19.8055V10.9282H19.4898V8.00943ZM18.9377 8.00943H19.2532V10.9282H18.9377V8.00943ZM18.4644 8.00943H18.7011V10.9282H18.4644V8.00943ZM17.9122 8.00943H18.1489V10.9282H17.9122V8.00943ZM17.36 8.00943H17.6756V10.9282H17.36V8.00943ZM16.8078 8.00943H17.1234V10.9282H16.8077V8.00943H16.8078ZM16.5711 7.69388V11.2437H20.0421V7.69388H16.5711V7.69388ZM23.592 16.1346H23.8286V19.1322H23.5919V16.1346H23.592ZM23.0397 16.1346H23.3553V19.1322H23.0397V16.1346ZM22.4875 16.1346H22.8031V19.1322H22.4875V16.1346ZM22.0142 16.1346H22.2509V19.1322H22.0142V16.1346ZM21.462 16.1346H21.6988V19.1322H21.462V16.1346ZM20.9098 16.1346H21.2254V19.1322H20.9098V16.1346H20.9098ZM20.5942 15.8979V19.4478H24.1441V15.8979H20.5943H20.5942ZM11.6804 25.1275C11.4174 25.1275 11.1939 25.2327 11.0098 25.4431C10.8258 25.6534 10.7338 25.8901 10.7338 26.153C10.7338 26.416 10.8258 26.6394 11.0098 26.8235C11.1939 27.0076 11.4174 27.0997 11.6804 27.0997C11.9434 27.0997 12.1668 27.0076 12.3509 26.8235C12.5349 26.6394 12.627 26.416 12.627 26.153C12.627 25.9426 12.5875 25.7718 12.5087 25.6403C12.4298 25.5088 12.3114 25.3904 12.1537 25.2853C11.9959 25.1801 11.8381 25.1275 11.6804 25.1275V25.1275ZM11.6804 25.4431C11.7855 25.4431 11.8645 25.4694 11.917 25.5219C11.8118 25.5745 11.7592 25.6534 11.7592 25.7586C11.7592 25.9164 11.8645 25.9952 12.0748 25.9952C12.18 25.9952 12.2588 25.9426 12.3114 25.8374C12.3641 25.9426 12.3903 26.0478 12.3903 26.153C12.3903 26.6263 12.1536 26.8629 11.6804 26.8629C11.2072 26.8629 10.9704 26.6263 10.9704 26.153C10.9704 25.6797 11.2071 25.443 11.6804 25.443V25.4431ZM14.2835 32.2272C12.1273 31.1754 10.6286 29.7029 9.78711 27.8096C8.89313 28.0726 7.815 28.2303 6.55281 28.2829H3.1607C5.79024 30.8598 9.12969 32.1746 13.1791 32.2272H14.2835V32.2272Z" fill="white"/>
</g>
<defs>
<clipPath id="clip0_2_139">
<rect width="40" height="40" fill="white"/>
</clipPath>
</defs>
</svg>
