<svg width="40" height="40" viewBox="0 0 40 40" fill="none" xmlns="http://www.w3.org/2000/svg">
<g clip-path="url(#clip0_2_143)">
<path d="M39.9213 22.6437L37.6875 15.755L33.2475 2.10374C33.1984 1.95069 33.102 1.81719 32.9721 1.72247C32.8423 1.62775 32.6857 1.57671 32.525 1.57671C32.3643 1.57671 32.2077 1.62775 32.0779 1.72247C31.948 1.81719 31.8516 1.95069 31.8025 2.10374L27.3625 15.7487H12.6363L8.19625 2.10374C7.9675 1.39999 6.9725 1.39999 6.75125 2.10374L2.31125 15.7487L0.0712493 22.6437C-0.130001 23.2687 0.0974993 23.9587 0.624999 24.3487L20 38.425L39.375 24.3487C39.9013 23.9587 40.13 23.275 39.9213 22.6437Z" fill="white"/>
</g>
<defs>
<clipPath id="clip0_2_143">
<rect width="40" height="40" fill="white"/>
</clipPath>
</defs>
</svg>
