<svg width="40" height="40" viewBox="0 0 40 40" fill="none" xmlns="http://www.w3.org/2000/svg">
<g clip-path="url(#clip0_2_153)">
<path d="M10.0362 13.0357C9.12765 13.0357 8.39101 13.8331 8.39101 14.8167C8.39101 15.8003 9.12757 16.5976 10.0362 16.5976C10.9449 16.5976 11.6815 15.8003 11.6815 14.8167C11.6815 13.8331 10.9448 13.0357 10.0362 13.0357ZM10.7826 15.6817C10.5672 15.6817 10.3924 15.4767 10.3924 15.2238C10.3924 14.9709 10.5671 14.7658 10.7826 14.7658C10.998 14.7658 11.1727 14.9709 11.1727 15.2238C11.1727 15.4767 10.998 15.6817 10.7826 15.6817ZM23.7851 12.596C22.8951 12.596 22.1737 13.3933 22.1737 14.3769C22.1737 15.3605 22.8951 16.1578 23.7851 16.1578C24.675 16.1578 25.3964 15.3605 25.3964 14.3769C25.3964 13.3933 24.675 12.596 23.7851 12.596ZM24.5313 15.2419C24.3252 15.2419 24.1582 15.0368 24.1582 14.7839C24.1582 14.531 24.3253 14.326 24.5313 14.326C24.7373 14.326 24.9044 14.531 24.9044 14.7839C24.9044 15.0369 24.7373 15.2419 24.5313 15.2419ZM36.7733 8.24221C35.5861 7.91995 34.297 8.15745 33.0588 8.98846C31.9563 8.05557 30.6842 7.34323 29.2594 6.80042C26.7322 5.86752 23.7894 5.51135 19.8035 5.51135C15.5462 5.85057 12.383 6.51206 9.77085 7.78417C8.71929 8.29299 7.7864 8.90362 6.97226 9.61604C5.71711 8.83581 4.41109 8.64924 3.20687 9.02237C2.08742 9.36159 1.12062 10.1588 0.543905 11.1934C-0.0328139 12.228 -0.168439 13.4153 0.221639 14.433C0.611795 15.4507 1.5107 16.2479 2.85062 16.7397C2.42656 18.4528 2.20609 20.2677 2.17219 22.2691C2.04953 26.7694 2.79703 32.8464 2.86383 34.4882H38.4507C38.4597 32.984 38.769 27.3407 38.0794 21.0988C37.8929 19.3009 37.6045 17.6386 37.1975 16.0782C38.5714 15.5524 39.4703 14.6874 39.8265 13.568C40.1657 12.5333 39.9961 11.363 39.4194 10.3284C38.8257 9.31073 37.8758 8.54745 36.7734 8.24213L36.7733 8.24221ZM7.20375 15.8174C6.84757 14.0196 7.23765 12.4591 8.25531 11.2717C9.17125 10.2032 10.562 9.52471 12.0716 9.3212C13.5812 9.13463 15.1077 9.43987 16.2611 10.2202C17.5501 11.0852 18.3304 12.4591 18.4322 14.2231C18.8053 20.5497 8.79812 22.0592 7.20375 15.8174ZM19.1992 24.7954C19.1823 25.1007 19.1653 25.2195 19.1484 25.3891C19.1144 26.0167 19.1169 26.2421 19.1677 26.7171C18.3438 27.5894 17.7138 27.6767 17.3709 27.0934C16.9638 26.381 16.8705 25.3989 16.9869 24.5361L19.1968 23.8382C19.1968 23.8382 19.2331 24.4053 19.1992 24.7954ZM22.0748 26.0124C22.0748 26.3346 22.0578 26.623 22.0069 26.8943C21.8883 27.0979 21.5799 27.484 21.0082 27.4846C20.4365 27.4853 20.1956 27.153 20.0091 26.7289C19.9582 26.271 20.0124 24.8705 20.0464 24.5653C20.0803 24.1752 20.0837 23.965 20.0837 23.7446C20.0837 23.7446 21.8744 24.1922 21.9863 24.3414C22.0983 24.4907 22.075 25.741 22.075 26.0123L22.0748 26.0124ZM23.7107 23.5321C23.3884 23.8883 23.0662 24.0071 22.6761 23.9901C22.3708 23.9732 22.1673 23.8883 21.4888 23.617C20.8104 23.3286 20.4372 23.2269 19.9962 23.2099C19.5721 23.159 19.1107 23.2677 18.2152 23.583C16.8823 24.0524 16.2816 24.0071 15.8746 23.2607C15.31 22.2414 16.0654 20.8892 17.188 20.5972C17.1312 20.4872 17.0901 20.3785 17.0766 20.2337C17.029 19.1554 17.8824 18.3112 19.2519 18.0975C20.5159 17.9003 22.0309 18.3235 22.3494 19.4949C22.4506 19.8763 22.3717 20.2345 22.1258 20.5432C22.7894 20.8678 23.3683 21.2885 23.7276 21.7342C24.2365 22.3448 24.2535 22.9554 23.7107 23.5321V23.5321ZM31.2141 17.1246C30.3491 18.1762 29.0261 18.8886 27.5505 19.143C24.3108 19.6857 21.3766 18.0066 20.8168 14.716V14.6991C20.4097 8.03323 30.5865 6.25237 32.0961 12.7485C32.5032 14.4446 32.1639 15.9542 31.2141 17.1246V17.1246ZM21.9171 19.6111C21.9955 19.907 21.9094 20.1641 21.654 20.397C20.9715 21.0194 19.2737 21.2532 18.2267 20.8689C17.9334 20.7613 17.5747 20.5571 17.5226 20.1949C17.4981 19.5323 17.9574 18.7527 19.321 18.5399C20.7569 18.316 21.7299 18.9245 21.9171 19.6111V19.6111Z" fill="white"/>
</g>
<defs>
<clipPath id="clip0_2_153">
<rect width="40" height="40" fill="white"/>
</clipPath>
</defs>
</svg>
