<svg width="40" height="40" viewBox="0 0 40 40" fill="none" xmlns="http://www.w3.org/2000/svg">
<g clip-path="url(#clip0_2_147)">
<path d="M23.4175 4.5837L31.64 9.3362C32.0226 8.93409 32.4936 8.6265 33.0156 8.43775C33.5376 8.249 34.0963 8.18425 34.6476 8.24864C35.199 8.31302 35.7278 8.50477 36.1922 8.80872C36.6567 9.11267 37.0441 9.52049 37.3238 9.99995C37.6002 10.4812 37.7607 11.0202 37.7926 11.5743C37.8245 12.1283 37.727 12.6822 37.5077 13.192C37.2884 13.7018 36.9533 14.1536 36.5291 14.5114C36.1049 14.8693 35.6032 15.1234 35.0638 15.2537V24.7524C35.6042 24.88 36.1071 25.1325 36.5323 25.4895C36.9575 25.8466 37.2931 26.2984 37.5121 26.8087C37.7312 27.3189 37.8275 27.8734 37.7935 28.4276C37.7595 28.9818 37.596 29.5203 37.3163 29.9999C37.0334 30.4883 36.6388 30.9028 36.1649 31.2093C35.691 31.5159 35.1513 31.7058 34.5898 31.7636C34.0284 31.8214 33.4613 31.7454 32.9348 31.5419C32.4084 31.3383 31.9377 31.013 31.5613 30.5925L23.3838 35.3124C23.561 35.8484 23.6085 36.4187 23.5224 36.9766C23.4363 37.5345 23.219 38.064 22.8885 38.5215C22.5579 38.9791 22.1235 39.3517 21.6209 39.6087C21.1184 39.8657 20.562 39.9998 19.9975 40C19.4427 40.0004 18.8954 39.8712 18.3994 39.6227C17.9033 39.3742 17.4721 39.0133 17.1402 38.5687C16.8083 38.1241 16.5848 37.6082 16.4875 37.0619C16.3903 36.5157 16.4219 35.9543 16.58 35.4224L8.35125 30.6762C8.02811 31.0159 7.64111 31.2884 7.21243 31.4782C6.78375 31.668 6.32183 31.7713 5.85314 31.7822C5.38446 31.7931 4.91822 31.7114 4.48117 31.5418C4.04412 31.3722 3.64485 31.1179 3.30625 30.7937C2.84498 30.3502 2.51125 29.791 2.33991 29.1745C2.16857 28.5579 2.1659 27.9067 2.33219 27.2888C2.49849 26.6709 2.82763 26.109 3.28526 25.6617C3.74288 25.2145 4.3122 24.8983 4.93375 24.7462V15.2474C4.43553 15.1289 3.96871 14.9043 3.56506 14.5891C3.16142 14.2739 2.83043 13.8754 2.59463 13.4207C2.35884 12.9661 2.22376 12.466 2.1986 11.9545C2.17344 11.443 2.25879 10.932 2.44884 10.4564C2.63889 9.98086 2.92918 9.55181 3.29994 9.1985C3.6707 8.84519 4.11323 8.57592 4.59742 8.409C5.0816 8.24209 5.59606 8.18145 6.10578 8.23123C6.6155 8.281 7.10851 8.44002 7.55125 8.69745C7.84375 8.8662 8.1175 9.07495 8.3525 9.32245L16.5813 4.5762C16.3129 3.67049 16.4152 2.69526 16.8657 1.86499C17.3163 1.03471 18.0781 0.417362 18.9838 0.1487C19.5995 -0.0354219 20.2537 -0.0495258 20.8768 0.107883C21.5 0.265292 22.0689 0.58835 22.5234 1.04282C22.9779 1.49729 23.3009 2.06625 23.4583 2.6894C23.6157 3.31254 23.6016 3.96667 23.4175 4.58245V4.5837ZM22.5588 6.0487C22.5263 6.0812 22.5 6.1137 22.4613 6.1462L33.23 24.7924C33.275 24.7799 33.3275 24.7662 33.3663 24.7537V15.2425C32.9127 15.1303 32.4857 14.9297 32.1099 14.6523C31.734 14.3748 31.4166 14.0258 31.1759 13.6254C30.9351 13.225 30.7758 12.781 30.707 12.3189C30.6382 11.8568 30.6613 11.3856 30.775 10.9325C30.7813 10.8937 30.795 10.8475 30.8013 10.8087L22.5588 6.0487ZM17.5325 6.1462L17.435 6.0487L9.1925 10.8012C9.45354 11.7086 9.3437 12.6824 8.88712 13.5089C8.43055 14.3353 7.66458 14.9467 6.7575 15.2087L6.6275 15.2412V24.7524L6.77125 24.7912L17.54 6.14495L17.5325 6.1462ZM20.9963 6.99245C20.3467 7.17495 19.6595 7.17495 19.01 6.99245L8.24125 25.6387C8.73 26.1074 9.075 26.7125 9.24375 27.3775H30.7613C30.9238 26.7137 31.2688 26.1075 31.7638 25.6325L20.9963 6.99245ZM22.6363 34.0362L30.8263 29.3037C30.8 29.225 30.7813 29.1474 30.7613 29.0687H9.2375L9.19875 29.205L17.435 33.9575C17.7671 33.6126 18.1656 33.3385 18.6064 33.1516C19.0472 32.9647 19.5212 32.8689 20 32.8699C21.0488 32.8699 21.9863 33.3187 22.6363 34.035V34.0362Z" fill="white"/>
</g>
<defs>
<clipPath id="clip0_2_147">
<rect width="40" height="40" fill="white"/>
</clipPath>
</defs>
</svg>
