<svg width="40" height="40" viewBox="0 0 40 40" fill="none" xmlns="http://www.w3.org/2000/svg">
<g clip-path="url(#clip0_2_141)">
<path d="M17.005 23.9199L17.0187 23.9312L15.3525 27.9549C13.7552 26.932 12.5402 25.4103 11.8962 23.6262L16.1925 22.8962L16.1987 22.9024C16.3296 22.8793 16.4643 22.892 16.5886 22.9392C16.7128 22.9864 16.822 23.0662 16.9046 23.1703C16.9873 23.2745 17.0402 23.399 17.0578 23.5307C17.0755 23.6624 17.0572 23.7965 17.005 23.9187V23.9199ZM15.6187 20.3712C15.7469 20.3358 15.8631 20.2664 15.955 20.1702C16.0468 20.074 16.1108 19.9547 16.1402 19.825C16.1696 19.6953 16.1632 19.5601 16.1218 19.4337C16.0804 19.3073 16.0054 19.1946 15.905 19.1074L15.9112 19.0874L12.6425 16.1637C11.646 17.7864 11.2172 19.6944 11.4237 21.5874L15.61 20.3824L15.6187 20.3712ZM17.5262 17.0699C18.0012 17.4149 18.665 17.0899 18.6912 16.5037L18.7112 16.4974L18.9575 12.1287C17.0624 12.3504 15.2956 13.1986 13.9375 14.5387L17.5187 17.0699H17.5262ZM18.795 21.6537L20 22.2337L21.205 21.6537L21.5037 20.3587L20.67 19.3174H19.33L18.4962 20.3587L18.795 21.6537ZM21.295 16.4912C21.2998 16.6243 21.3409 16.7536 21.4139 16.865C21.4869 16.9764 21.589 17.0658 21.7091 17.1233C21.8292 17.1809 21.9628 17.2045 22.0954 17.1915C22.228 17.1786 22.3545 17.1296 22.4612 17.0499L22.4725 17.0562L26.0275 14.5374C24.6757 13.2086 22.9228 12.3635 21.0412 12.1337L21.2875 16.4899L21.295 16.4912ZM39.42 26.4449L29.7987 38.4112C29.29 39.0362 28.5287 39.4012 27.7225 39.4012L12.2862 39.4074C11.48 39.4074 10.7112 39.0424 10.2025 38.4112L0.581244 26.4449C0.3335 26.135 0.15859 25.7733 0.0694477 25.3867C-0.0196946 25 -0.0207896 24.5983 0.0662436 24.2112L3.50499 9.28994C3.59218 8.90151 3.76718 8.53821 4.01658 8.22792C4.26598 7.91764 4.58315 7.66861 4.94374 7.49994L18.8437 0.853689C19.205 0.683321 19.5994 0.594971 19.9987 0.594971C20.3981 0.594971 20.7925 0.683321 21.1537 0.853689L35.06 7.49369C35.4183 7.66555 35.7336 7.91556 35.9826 8.22534C36.2316 8.53511 36.408 8.89676 36.4987 9.28369L39.9375 24.2124C40.0236 24.5996 40.0221 25.0011 39.933 25.3876C39.8439 25.7741 39.6694 26.1358 39.4225 26.4462L39.42 26.4449ZM33.9387 23.0149C33.8675 23.0012 33.77 22.9687 33.6987 22.9549C33.405 22.9037 33.17 22.9162 32.8975 22.8962C32.3187 22.8312 31.8375 22.7862 31.4075 22.6499C31.2312 22.5849 31.1075 22.3762 31.0487 22.2849L30.71 22.1862C30.8923 20.891 30.8325 19.5733 30.5337 18.2999C30.2407 17.0147 29.7136 15.7944 28.9787 14.6999C29.0637 14.6212 29.225 14.4799 29.27 14.4337C29.2837 14.2837 29.27 14.1287 29.4262 13.9649C29.7575 13.6512 30.17 13.3987 30.6625 13.0912C30.9037 12.9549 31.1187 12.8649 31.3587 12.6874C31.4125 12.6487 31.4837 12.5837 31.5425 12.5374C31.9387 12.2262 32.0312 11.6724 31.7437 11.3137C31.4562 10.9549 30.9037 10.9237 30.5075 11.2349C30.4487 11.2812 30.3712 11.3399 30.3175 11.3849C30.0975 11.5799 29.9612 11.7687 29.7712 11.9712C29.3612 12.3874 29.0162 12.7324 28.6462 12.9799C28.49 13.0787 28.2475 13.0449 28.145 13.0387L27.825 13.2674C26.0053 11.3519 23.5502 10.1645 20.9187 9.92744L20.8987 9.55619C20.7887 9.45244 20.6587 9.36119 20.625 9.13994C20.5862 8.69119 20.6512 8.20994 20.7237 7.62994C20.755 7.35619 20.82 7.13494 20.8337 6.83619V6.60119C20.8337 6.09244 20.455 5.67619 20 5.67619C19.5387 5.67619 19.1662 6.09244 19.1662 6.60119V6.83619C19.18 7.13494 19.245 7.35619 19.2762 7.62994C19.3475 8.20994 19.4075 8.69119 19.375 9.13994C19.3242 9.30535 19.2296 9.45393 19.1012 9.56994L19.0812 9.92119C16.433 10.1326 13.9586 11.3234 12.1412 13.2612C12.0375 13.1899 11.94 13.1174 11.8412 13.0462C11.6925 13.0662 11.5425 13.1112 11.3475 13.0012C10.9762 12.7462 10.6312 12.4012 10.2212 11.9849C10.0325 11.7837 9.89624 11.5949 9.67499 11.4062C9.62124 11.3599 9.54499 11.3012 9.49124 11.2562C9.32482 11.1262 9.12321 11.0491 8.91249 11.0349C8.7864 11.0285 8.66056 11.0517 8.54507 11.1027C8.42958 11.1538 8.32766 11.2311 8.24749 11.3287C7.96124 11.6937 8.05249 12.2399 8.44874 12.5587L8.46249 12.5649L8.63874 12.7012C8.87249 12.8774 9.08749 12.9674 9.32874 13.1049C9.82374 13.4187 10.2337 13.6712 10.565 13.9787C10.6887 14.1149 10.715 14.3549 10.7287 14.4599L10.995 14.6937C9.52418 16.9042 8.919 19.579 9.29499 22.2074L8.94999 22.3062C8.85874 22.4299 8.72874 22.6112 8.59124 22.6712C8.16124 22.8074 7.67999 22.8524 7.10124 22.9112C6.82749 22.9374 6.59249 22.9249 6.29999 22.9762C6.23499 22.9899 6.14999 23.0162 6.07874 23.0274L6.07374 23.0337H6.05999C5.57124 23.1524 5.25124 23.6074 5.35624 24.0499C5.45249 24.4912 5.93499 24.7649 6.42999 24.6549H6.44374L6.45749 24.6487L6.67249 24.6037C6.95874 24.5249 7.16749 24.4137 7.42124 24.3174C7.96749 24.1224 8.43124 23.9524 8.87249 23.8874C9.05624 23.8737 9.25749 24.0037 9.34749 24.0574L9.71249 23.9974C10.5258 26.5137 12.233 28.6448 14.5112 29.9874L14.3612 30.3524C14.42 30.4962 14.48 30.6837 14.4325 30.8212C14.2762 31.2449 13.9962 31.6874 13.6837 32.1762C13.5275 32.4024 13.37 32.5799 13.2337 32.8399C13.2025 32.9049 13.1625 33.0037 13.13 33.0687C12.915 33.5237 13.0712 34.0524 13.4812 34.2537C13.8975 34.4487 14.4112 34.2399 14.6325 33.7787C14.6662 33.7137 14.7112 33.6287 14.7375 33.5637C14.8537 33.2974 14.8937 33.0624 14.9775 32.8024C15.1925 32.2487 15.3162 31.6687 15.6225 31.3037C15.7075 31.2074 15.8375 31.1674 15.9812 31.1349L16.17 30.7899C18.6411 31.7397 21.3755 31.7464 23.8512 30.8087L24.0275 31.1287C24.1712 31.1737 24.3275 31.1999 24.4512 31.3887C24.68 31.7724 24.835 32.2349 25.025 32.7887C25.1087 33.0487 25.1487 33.2837 25.265 33.5499C25.2912 33.6087 25.3362 33.6999 25.37 33.7649C25.59 34.2262 26.105 34.4349 26.515 34.2337C26.9312 34.0387 27.0887 33.5099 26.8737 33.0487C26.8361 32.9754 26.7994 32.9017 26.7637 32.8274C26.6275 32.5674 26.47 32.3924 26.32 32.1637C26.0012 31.6749 25.74 31.2649 25.5787 30.8424C25.5137 30.6274 25.59 30.4974 25.6437 30.3537C25.61 30.3149 25.545 30.1124 25.5075 30.0149C27.7919 28.6585 29.4993 26.5112 30.3062 23.9799C30.41 23.9987 30.5975 24.0312 30.6625 24.0449C30.7875 23.9599 30.8975 23.8549 31.1262 23.8687C31.5675 23.9337 32.0312 24.1037 32.5775 24.2987C32.8312 24.3974 33.0387 24.5074 33.3262 24.5849C33.385 24.6049 33.47 24.6187 33.5412 24.6299L33.555 24.6362H33.5687C34.0637 24.7474 34.545 24.4749 34.6425 24.0312C34.7475 23.5874 34.4275 23.1324 33.9387 23.0162V23.0149ZM27.33 16.1649L24.0812 19.0749V19.0887C23.9816 19.1762 23.9074 19.289 23.8665 19.4152C23.8256 19.5414 23.8194 19.6763 23.8487 19.8056C23.878 19.935 23.9417 20.0541 24.033 20.1503C24.1243 20.2465 24.2398 20.3164 24.3675 20.3524L24.3737 20.3662L28.585 21.5762C28.6762 20.6462 28.6187 19.7012 28.4037 18.7899C28.1933 17.8618 27.83 16.9752 27.3287 16.1662L27.33 16.1649ZM20.645 25.0449C20.5803 24.924 20.4833 24.8235 20.3647 24.7547C20.2462 24.6858 20.1108 24.6513 19.9737 24.6549C19.8448 24.6607 19.7195 24.6996 19.6101 24.7679C19.5006 24.8362 19.4106 24.9316 19.3487 25.0449L17.2337 28.8662C19.03 29.4799 20.9837 29.4799 22.78 28.8662L20.6637 25.0449H20.645ZM23.7887 22.8899C23.6584 22.8668 23.5243 22.8792 23.4005 22.9259C23.2766 22.9725 23.1676 23.0517 23.085 23.1551C23.0024 23.2585 22.9491 23.3822 22.9309 23.5133C22.9126 23.6443 22.93 23.7779 22.9812 23.8999V23.9062L24.6612 27.9674C26.2711 26.9432 27.4924 25.4104 28.1312 23.6124L23.795 22.8774L23.7887 22.8899Z" fill="white"/>
</g>
<defs>
<clipPath id="clip0_2_141">
<rect width="40" height="40" fill="white"/>
</clipPath>
</defs>
</svg>
