<svg width="40" height="40" viewBox="0 0 40 40" fill="none" xmlns="http://www.w3.org/2000/svg">
<g clip-path="url(#clip0_4_155)">
<path d="M20 39.9267C19.43 39.9267 18.9 39.7784 18.405 39.5217L13.3567 36.6251C12.5984 36.2217 12.9784 36.0751 13.2067 36.0017C14.23 35.6717 14.42 35.5984 15.4834 35.0101C15.5967 34.9367 15.75 34.9734 15.8634 35.0467L19.735 37.2851C19.885 37.3584 20.0767 37.3584 20.19 37.2851L35.335 28.8117C35.485 28.7384 35.5617 28.5917 35.5617 28.4084V11.4984C35.5617 11.3151 35.4867 11.1684 35.335 11.0951L20.19 2.66006C20.0384 2.58673 19.8484 2.58673 19.735 2.66006L4.59002 11.0951C4.43835 11.1684 4.36169 11.3517 4.36169 11.4984V28.4084C4.36169 28.5551 4.43835 28.7384 4.59002 28.8117L8.72669 31.1234C10.9667 32.2234 12.37 30.9401 12.37 29.6567V12.9667C12.37 12.7467 12.56 12.5267 12.8267 12.5267H14.7617C14.99 12.5267 15.2167 12.7101 15.2167 12.9667V29.6551C15.2167 32.5534 13.585 34.2401 10.7384 34.2401C9.86502 34.2401 9.18169 34.2401 7.24669 33.3234L3.26169 31.1234C2.78149 30.8593 2.38049 30.4719 2.1001 30.001C1.8197 29.5302 1.67008 28.9931 1.66669 28.4451V11.5351C1.66669 10.4351 2.27335 9.40839 3.26169 8.85839L18.4067 0.383392C18.8997 0.130536 19.4459 -0.00134277 20 -0.00134277C20.5541 -0.00134277 21.1003 0.130536 21.5934 0.383392L36.74 8.85673C37.7267 9.40673 38.3334 10.4334 38.3334 11.5334V28.4434C38.3334 29.5434 37.7267 30.5701 36.74 31.1217L21.5934 39.5934C21.0905 39.8114 20.5481 39.9237 20 39.9234V39.9267ZM24.6684 28.2984C18.0267 28.2984 16.66 25.3651 16.66 22.8701C16.66 22.6501 16.85 22.4301 17.115 22.4301H19.0884C19.3167 22.4301 19.505 22.5767 19.505 22.7967C19.81 24.7401 20.6834 25.6934 24.7067 25.6934C27.895 25.6934 29.2617 24.9967 29.2617 23.3467C29.2617 22.3934 28.8817 21.6967 23.91 21.2201C19.7717 20.8151 17.1917 19.9367 17.1917 16.7451C17.1917 13.7734 19.7717 12.0117 24.1 12.0117C28.9584 12.0117 31.35 13.6267 31.6534 17.1484C31.65 17.2676 31.6098 17.3829 31.5384 17.4784C31.4634 17.5517 31.35 17.6251 31.235 17.6251H29.2617C29.1658 17.6227 29.0733 17.5893 28.9982 17.5298C28.923 17.4702 28.8692 17.3878 28.845 17.2951C28.3883 15.2784 27.2117 14.6167 24.1 14.6167C20.6067 14.6167 20.19 15.7901 20.19 16.6701C20.19 17.7351 20.6834 18.0651 25.39 18.6517C30.0584 19.2384 32.26 20.0817 32.26 23.2351C32.2217 26.4651 29.49 28.2984 24.6684 28.2984V28.2984Z" fill="white"/>
</g>
<defs>
<clipPath id="clip0_4_155">
<rect width="40" height="40" fill="white"/>
</clipPath>
</defs>
</svg>
