<svg width="40" height="40" viewBox="0 0 40 40" fill="none" xmlns="http://www.w3.org/2000/svg">
<path d="M28.5488 0C26.9932 0.0118361 25.4467 0.237276 23.9525 0.67L23.8488 0.70375C22.9087 0.540879 21.9576 0.449368 21.0038 0.43C19.0375 0.39625 17.35 0.87125 15.99 1.66625C14.6488 1.205 11.8688 0.39625 8.93876 0.56C6.90251 0.67 4.67501 1.28875 3.02001 3.03375C1.38001 4.7725 0.508756 7.4675 0.690006 11.14C0.741256 12.1487 1.02876 13.795 1.51001 15.9362C1.98501 18.0725 2.65626 20.5725 3.49626 22.8575C4.33626 25.1362 5.25251 27.1863 6.68626 28.5788C7.40126 29.275 8.39126 29.8688 9.55626 29.8175C10.3713 29.7838 11.1063 29.4262 11.745 28.8987C12.0563 29.3087 12.39 29.4838 12.6888 29.6475C13.0738 29.8563 13.4375 29.9987 13.8225 30.0912C14.5125 30.2662 15.6913 30.495 17.0713 30.26C17.5738 30.1696 18.0636 30.0189 18.53 29.8113L18.5888 31.445C18.66 33.17 18.7075 34.765 19.22 36.165C19.305 36.3937 19.5338 37.565 20.4313 38.6063C21.3363 39.6475 23.0925 40.2925 25.105 39.8625C26.5188 39.5625 28.3213 39.0163 29.52 37.3113C30.705 35.6313 31.2388 33.2163 31.3438 29.2963C31.3688 29.0813 31.4025 28.9063 31.4338 28.7363L31.7138 28.7625H31.7475C33.2575 28.8275 34.8988 28.6125 36.2725 27.9737C37.4825 27.4137 38.4013 26.8475 39.0713 25.8387C39.235 25.59 39.4225 25.285 39.47 24.7638C39.5213 24.25 39.2213 23.435 38.7263 23.0588C37.7375 22.3038 37.1125 22.59 36.4413 22.7338C35.7839 22.8754 35.1147 22.9557 34.4425 22.9737C36.3688 19.7325 37.7488 16.2825 38.5375 13.2337C39.0063 11.43 39.2675 9.77 39.2863 8.31875C39.3125 6.8675 39.19 5.585 38.3225 4.4725C35.6013 1.0025 31.7788 0.0375 28.8238 0.00625H28.55L28.5488 0ZM28.47 1.06875C31.2638 1.0425 34.8363 1.82375 37.4013 5.10375C37.9813 5.84 38.1513 6.91375 38.1313 8.2425C38.1113 9.57125 37.865 11.1525 37.415 12.8912C36.55 16.265 34.9013 20.1825 32.5913 23.7063C32.6707 23.7661 32.7583 23.8145 32.8513 23.85C33.3325 24.0512 34.4325 24.22 36.6325 23.7713C37.1863 23.6525 37.5913 23.5762 38.0138 23.895C38.1163 23.9815 38.1973 24.0907 38.2502 24.2139C38.3032 24.3372 38.3266 24.4711 38.3188 24.605C38.296 24.808 38.2196 25.0013 38.0975 25.165C37.6738 25.8012 36.8363 26.4087 35.7613 26.91C34.8113 27.3512 33.4425 27.58 32.24 27.5938C31.6288 27.6 31.0688 27.5538 30.5913 27.4038L30.5663 27.3988C30.3825 29.1625 29.9613 32.6525 29.6863 34.24C29.4663 35.5213 29.0813 36.545 28.3463 37.3062C27.61 38.075 26.575 38.53 25.175 38.83C23.4438 39.2012 22.1863 38.8038 21.3738 38.12C20.5613 37.4363 20.1888 36.525 19.9675 35.9713C19.8125 35.5875 19.7338 35.0925 19.6563 34.4275C19.5712 33.6335 19.5145 32.8368 19.4863 32.0388C19.435 30.6388 19.415 29.2388 19.435 27.8325C18.7128 28.4947 17.8155 28.9355 16.85 29.1025C15.6988 29.2975 14.6763 29.1025 14.065 28.9525C13.7634 28.8756 13.4725 28.7618 13.1988 28.6138C12.9125 28.4638 12.645 28.295 12.4638 27.955C12.3593 27.7603 12.327 27.535 12.3725 27.3187C12.4265 27.0991 12.5529 26.9041 12.7313 26.765C13.0625 26.4963 13.5 26.3487 14.1563 26.2112C15.355 25.9625 15.7775 25.795 16.0313 25.5912C16.2463 25.4225 16.495 25.0713 16.9225 24.5563C16.9225 24.5375 16.9225 24.5113 16.9163 24.4913C16.1417 24.4677 15.3834 24.2626 14.7025 23.8925C14.4563 24.1525 13.1725 25.5075 11.6175 27.3825C10.9663 28.1625 10.2438 28.6125 9.47626 28.6462C8.71501 28.6775 8.02251 28.295 7.43751 27.7275C6.26626 26.5875 5.32751 24.6275 4.51376 22.4137C3.70001 20.2 3.04251 17.7338 2.56751 15.6375C2.09876 13.5338 1.81876 11.8412 1.77876 11.0275C1.60376 7.5575 2.41751 5.22125 3.81001 3.7425C5.20251 2.26375 7.11126 1.71125 8.97376 1.60125C12.3138 1.4125 15.49 2.5775 16.1288 2.825C17.365 1.985 18.96 1.465 20.9525 1.49625C21.8967 1.51014 22.8363 1.63261 23.7525 1.86125L23.7863 1.84125C24.1894 1.70164 24.6 1.58478 25.0163 1.49125C26.1476 1.22576 27.3043 1.08368 28.4663 1.0675L28.47 1.06875ZM28.7238 2.18125H28.4775C27.5275 2.1925 26.5688 2.305 25.6388 2.50625C27.715 3.425 29.2838 4.83625 30.39 6.25625C31.1588 7.2325 31.79 8.30625 32.2713 9.4525C32.4613 9.89625 32.585 10.2663 32.65 10.5525C32.6888 10.6963 32.7088 10.8187 32.7213 10.9425C32.7213 11.0075 32.7275 11.0737 32.695 11.1837C32.695 11.19 32.6888 11.2038 32.6888 11.21C32.7425 12.6688 32.3775 13.6562 32.33 15.05C32.2988 16.06 32.5588 17.245 32.6238 18.54C32.6825 19.7562 32.5338 21.0912 31.745 22.4062C31.81 22.485 31.8688 22.5625 31.9338 22.6475C34.0238 19.3525 35.5338 15.7138 36.335 12.6075C36.765 10.9338 36.9913 9.4175 37.0113 8.22125C37.0313 7.0225 36.81 6.15 36.5225 5.78625C34.2825 2.9275 31.2563 2.1975 28.7225 2.18L28.7238 2.18125ZM20.735 2.61C18.77 2.61625 17.3563 3.21 16.2838 4.10125C15.175 5.02625 14.4338 6.2825 13.9525 7.5775C13.3725 9.1075 13.1713 10.5913 13.0925 11.6013L13.1188 11.5875C13.8128 11.1989 14.558 10.9098 15.3325 10.7288C16.1663 10.5325 17.0713 10.4738 17.8838 10.7938C18.705 11.105 19.375 11.8537 19.6225 12.98C20.7963 18.41 19.2588 20.4288 18.6925 21.9513C18.4775 22.505 18.2888 23.065 18.1388 23.6375C18.21 23.6237 18.2825 23.6038 18.3538 23.5975C18.7575 23.5663 19.0688 23.6962 19.2525 23.7737C19.8263 24.0137 20.2163 24.5087 20.4313 25.075C20.484 25.2296 20.5229 25.3885 20.5475 25.55C20.569 25.6175 20.5804 25.6879 20.5813 25.7588C20.5156 27.835 20.5219 29.9129 20.6 31.9887C20.64 32.8875 20.6988 33.675 20.77 34.3C20.8413 34.9188 20.9388 35.3937 21.005 35.5562C21.2188 36.09 21.5313 36.7863 22.0988 37.2613C22.6588 37.7375 23.465 38.05 24.9438 37.7375C26.225 37.4575 27.0138 37.0787 27.54 36.5325C28.0688 35.9787 28.38 35.2175 28.5813 34.0525C28.8875 32.3013 29.4925 27.2225 29.565 26.2725C29.5338 25.5487 29.6363 24.9963 29.8713 24.5725C30.105 24.1425 30.47 23.8763 30.79 23.7325C30.945 23.6613 31.095 23.6163 31.2188 23.5763C31.0878 23.3936 30.9532 23.2135 30.815 23.0363C30.3588 22.4827 29.9837 21.8669 29.7013 21.2075C29.5714 20.931 29.4278 20.6611 29.2713 20.3988C29.0513 20.0025 28.7713 19.5 28.4775 18.9338C27.8913 17.8138 27.2538 16.4475 26.9213 15.1188C26.59 13.79 26.545 12.4175 27.3913 11.4538C28.14 10.5938 29.4613 10.2375 31.4325 10.4387C31.3738 10.2625 31.3425 10.1125 31.2438 9.885C30.7954 8.83194 30.2108 7.84224 29.505 6.94125C27.8313 4.8 25.1163 2.67625 20.9313 2.605L20.735 2.61ZM9.66876 2.695C9.45818 2.69478 9.24765 2.70145 9.03751 2.715C7.35126 2.81375 5.76251 3.3 4.62251 4.505C3.48376 5.71625 2.73626 7.68875 2.89751 10.9637C2.93126 11.5887 3.19751 13.32 3.65876 15.3838C4.12251 17.4488 4.77876 19.8775 5.56751 22.025C6.35376 24.1663 7.30626 26.035 8.21751 26.92C8.67251 27.3562 9.06876 27.5387 9.42751 27.5262C9.78626 27.5062 10.2225 27.2975 10.7563 26.66C11.7249 25.4913 12.7304 24.3536 13.7713 23.2488C13.0331 22.6061 12.4684 21.7881 12.1294 20.87C11.7904 19.9518 11.6879 18.9632 11.8313 17.995C12 16.765 12.0263 15.6113 12 14.7C11.9813 13.815 11.9213 13.23 11.9213 12.8587V12.8188L11.915 12.8075C11.915 10.8863 12.255 8.98625 12.905 7.1825C13.3738 5.9375 14.065 4.6825 15.105 3.65875C14.0838 3.32 12.2663 2.81375 10.3013 2.715C10.0911 2.70149 9.88058 2.69482 9.67001 2.695H9.66876ZM30.3313 11.4962C29.2 11.5162 28.5675 11.81 28.23 12.1862C27.76 12.7275 27.715 13.6775 28.0088 14.85C28.3 16.0213 28.9075 17.33 29.4738 18.4187C29.7538 18.965 30.0275 19.4538 30.2475 19.85C30.4763 20.2538 30.6388 20.5338 30.7363 20.7812C30.8275 21.0025 30.9325 21.1975 31.0363 21.38C31.4725 20.455 31.5513 19.55 31.505 18.6C31.4463 17.4288 31.1738 16.23 31.2188 15.02C31.265 13.6 31.545 12.675 31.565 11.5813C31.1568 11.5273 30.7455 11.4989 30.3338 11.4962H30.3313ZM16.6088 11.6937C16.2638 11.6937 15.9188 11.7388 15.58 11.8175C14.9087 11.979 14.2623 12.2309 13.6588 12.5663C13.4556 12.6762 13.262 12.8029 13.08 12.945L13.04 12.9762C13.0538 13.225 13.0988 13.81 13.1188 14.6825C13.1388 15.6325 13.1188 16.8425 12.9375 18.1525C12.5338 21.0038 14.6038 23.3613 17.0325 23.3675C17.1763 22.7813 17.4088 22.1875 17.6438 21.5637C18.32 19.74 19.6488 18.4125 18.5288 13.2175C18.3475 12.3713 17.9825 12.0263 17.48 11.8313C17.2004 11.7328 16.9051 11.6866 16.6088 11.695V11.6937ZM29.805 12.0312H29.89C29.9938 12.0375 30.0988 12.045 30.1888 12.07C30.27 12.0859 30.3476 12.1169 30.4175 12.1613C30.45 12.1807 30.4779 12.207 30.4992 12.2383C30.5206 12.2696 30.5349 12.3051 30.5413 12.3425V12.3563C30.5409 12.4362 30.5207 12.5148 30.4825 12.585C30.4333 12.6748 30.3724 12.7576 30.3013 12.8313C30.1332 13.0192 29.9053 13.1433 29.6563 13.1825C29.4153 13.2134 29.1714 13.1532 28.9725 13.0138C28.8937 12.9566 28.8216 12.8908 28.7575 12.8175C28.7013 12.7583 28.6646 12.6832 28.6525 12.6025C28.6452 12.5255 28.6685 12.4487 28.7175 12.3888C28.7754 12.3296 28.8415 12.2791 28.9138 12.2388C29.075 12.1475 29.29 12.0825 29.5388 12.0487C29.6288 12.0375 29.72 12.03 29.805 12.0238V12.0312ZM16.77 12.3112C16.855 12.3112 16.9538 12.3175 17.045 12.33C17.305 12.37 17.5263 12.435 17.7013 12.5388C17.7871 12.5805 17.8626 12.6407 17.9225 12.715C17.9874 12.7933 18.0201 12.8935 18.0138 12.995C17.996 13.0912 17.9528 13.181 17.8888 13.255C17.8202 13.3385 17.7393 13.411 17.6488 13.47C17.4322 13.6256 17.1645 13.6931 16.9 13.6588C16.6321 13.6157 16.3866 13.483 16.2038 13.2825C16.127 13.2 16.061 13.108 16.0075 13.0087C15.9492 12.9203 15.9239 12.814 15.9363 12.7087C15.9625 12.5337 16.1125 12.435 16.2563 12.3837C16.42 12.33 16.595 12.3125 16.77 12.3187V12.3112ZM31.8688 24.55H31.8625C31.6225 24.6412 31.4213 24.675 31.2513 24.7537C31.0792 24.8186 30.9378 24.9458 30.855 25.11C30.7438 25.3 30.66 25.6387 30.685 26.2162C30.7602 26.2703 30.8444 26.3105 30.9338 26.335C31.2138 26.42 31.695 26.4788 32.2288 26.4713C33.29 26.4575 34.5988 26.2113 35.295 25.885C35.864 25.6213 36.3923 25.2774 36.8638 24.8638C34.54 25.3388 33.2325 25.215 32.4238 24.8837C32.2251 24.7978 32.0388 24.6855 31.87 24.55H31.8688ZM18.4838 24.7062H18.45C18.36 24.7125 18.235 24.7463 17.9813 25.02C17.4013 25.67 17.2 26.08 16.725 26.4587C16.2438 26.8425 15.625 27.045 14.3813 27.2988C14.116 27.3462 13.8577 27.4269 13.6125 27.5388C13.6575 27.5788 13.6575 27.5925 13.7288 27.6238C13.9125 27.7288 14.145 27.8137 14.335 27.865C14.8688 27.995 15.74 28.1512 16.6588 27.995C17.57 27.8387 18.52 27.4012 19.335 26.2637C19.4788 26.0687 19.49 25.775 19.3738 25.4625C19.2575 25.1575 19.0025 24.8838 18.8275 24.8125C18.718 24.7615 18.6019 24.7262 18.4825 24.7075L18.4838 24.7062Z" fill="white"/>
</svg>
