<svg width="40" height="40" viewBox="0 0 40 40" fill="none" xmlns="http://www.w3.org/2000/svg">
<path d="M40 19.4816C40 16.8316 36.6817 14.32 31.5933 12.7633C32.7683 7.57829 32.2467 3.45163 29.9467 2.12996C29.3894 1.81783 28.7586 1.66071 28.12 1.67496V3.49163C28.495 3.49163 28.7967 3.56663 29.05 3.70496C30.1583 4.34163 30.64 6.76163 30.265 9.87663C30.175 10.6433 30.0283 11.45 29.8483 12.2733C28.1444 11.8627 26.415 11.5659 24.6717 11.385C23.6331 9.95211 22.5 8.59019 21.28 7.30829C23.9383 4.83829 26.4333 3.48496 28.13 3.48496V1.66663C25.8867 1.66663 22.9517 3.26496 19.9833 6.03663C17.0167 3.28329 14.08 1.69996 11.8383 1.69996V3.51663C13.5267 3.51663 16.03 4.86329 18.6883 7.31663C17.5467 8.51663 16.405 9.87662 15.32 11.385C13.5731 11.5639 11.8406 11.8635 10.135 12.2816C9.95475 11.5013 9.81291 10.7125 9.71 9.91829C9.32667 6.80163 9.8 4.38163 10.9017 3.73829C11.145 3.59163 11.4633 3.52496 11.8383 3.52496V1.70829C11.155 1.70829 10.5333 1.85496 9.99667 2.16329C7.705 3.48496 7.19167 7.60163 8.37333 12.7716C3.30167 14.3383 0 16.84 0 19.4816C0 22.1316 3.31833 24.6433 8.40667 26.1983C7.23167 31.385 7.75333 35.5116 10.0533 36.8316C10.5833 37.1416 11.2033 37.2883 11.8867 37.2883C14.13 37.2883 17.065 35.69 20.0333 32.9183C23 35.6733 25.935 37.255 28.1783 37.255C28.8218 37.2685 29.4574 37.111 30.02 36.7983C32.3117 35.4783 32.825 31.3616 31.6433 26.1916C36.6983 24.635 40 22.1233 40 19.4816ZM29.3833 14.0433C29.0666 15.1331 28.6996 16.2075 28.2833 17.2633C27.6019 15.9379 26.8538 14.6479 26.0417 13.3983C27.2 13.57 28.3167 13.7816 29.385 14.0433H29.3833ZM25.65 22.7266C25.0395 23.7924 24.384 24.8317 23.685 25.8416C21.2388 26.0572 18.7784 26.06 16.3317 25.85C14.9282 23.8453 13.7009 21.7229 12.6633 19.5066C13.6993 17.2851 14.9214 15.1553 16.3167 13.14C18.7623 12.9239 21.2221 12.9206 23.6683 13.13C24.345 14.1 25.0067 15.1366 25.6417 16.23C26.2617 17.2966 26.825 18.38 27.3383 19.4733C26.8193 20.5799 26.2561 21.6652 25.65 22.7266V22.7266ZM28.2833 21.6666C28.7233 22.7583 29.1 23.8516 29.4083 24.9116C28.3417 25.1733 27.215 25.3933 26.05 25.5633C26.8587 24.3023 27.6041 23.0018 28.2833 21.6666V21.6666ZM20.0167 30.3666C19.2583 29.5833 18.5 28.7116 17.75 27.7566C18.4833 27.79 19.2333 27.815 19.9917 27.815C20.7583 27.815 21.5167 27.7983 22.2583 27.7566C21.525 28.7116 20.7667 29.5833 20.0167 30.3666ZM13.95 25.5633C12.8262 25.4005 11.7106 25.1858 10.6067 24.92C10.9083 23.8683 11.2833 22.7833 11.7067 21.7C12.0417 22.35 12.3933 23.0033 12.7767 23.6566C13.16 24.3083 13.55 24.945 13.95 25.5633ZM19.975 8.59663C20.7333 9.37996 21.4917 10.2516 22.2417 11.2066C21.5083 11.1733 20.7583 11.1483 20 11.1483C19.2333 11.1483 18.475 11.165 17.7333 11.2066C18.4667 10.2516 19.225 9.37996 19.975 8.59663ZM13.9417 13.4C13.1331 14.6582 12.3877 15.9559 11.7083 17.2883C11.2804 16.2257 10.9049 15.1427 10.5833 14.0433C11.65 13.79 12.7767 13.57 13.9417 13.4ZM6.56333 23.6066C3.67667 22.3766 1.81 20.7616 1.81 19.4816C1.81 18.2016 3.67667 16.5783 6.56333 15.3566C7.26333 15.055 8.03 14.785 8.82167 14.5333C9.28667 16.13 9.89833 17.7933 10.655 19.4983C9.94061 21.1019 9.33643 22.7524 8.84667 24.4383C8.07242 24.1986 7.31039 23.921 6.56333 23.6066V23.6066ZM10.95 35.2566C9.84167 34.6233 9.36 32.2 9.735 29.0866C9.825 28.32 9.97167 27.5116 10.1517 26.6883C11.7483 27.08 13.4933 27.3816 15.3283 27.5783C16.367 29.0111 17.5 30.373 18.72 31.655C16.0617 34.125 13.5667 35.4783 11.87 35.4783C11.5499 35.4818 11.2339 35.4062 10.95 35.2583V35.2566ZM30.29 29.045C30.6733 32.16 30.2 34.5816 29.0983 35.225C28.855 35.3716 28.5367 35.4366 28.1617 35.4366C26.4733 35.4366 23.97 34.0916 21.3117 31.6366C22.5265 30.3601 23.652 29.0013 24.68 27.57C26.4269 27.391 28.1594 27.0914 29.865 26.6733C30.0533 27.4966 30.1983 28.2866 30.29 29.045V29.045ZM33.4283 23.6066C32.7283 23.9083 31.9617 24.1783 31.17 24.43C30.6716 22.7355 30.0591 21.0767 29.3367 19.465C30.0867 17.77 30.6883 16.115 31.145 14.525C31.9217 14.7655 32.6865 15.043 33.4367 15.3566C36.3233 16.5866 38.19 18.2016 38.19 19.4816C38.1817 20.7616 36.315 22.385 33.4283 23.6066V23.6066Z" fill="white"/>
<path d="M19.9917 23.2083C20.9801 23.2083 21.9279 22.8157 22.6268 22.1168C23.3257 21.4179 23.7183 20.47 23.7183 19.4817C23.7183 18.4933 23.3257 17.5454 22.6268 16.8465C21.9279 16.1476 20.9801 15.755 19.9917 15.755C19.0033 15.755 18.0554 16.1476 17.3565 16.8465C16.6576 17.5454 16.265 18.4933 16.265 19.4817C16.265 20.47 16.6576 21.4179 17.3565 22.1168C18.0554 22.8157 19.0033 23.2083 19.9917 23.2083V23.2083Z" fill="white"/>
</svg>
