<svg width="40" height="40" viewBox="0 0 40 40" fill="none" xmlns="http://www.w3.org/2000/svg">
<g clip-path="url(#clip0_2_151)">
<path d="M39.9875 23.9001C39.975 24.2838 39.4663 24.7076 38.4313 25.2476C36.2963 26.3613 25.2413 30.9113 22.8838 32.1351C20.5275 33.3651 19.225 33.3526 17.3625 32.4601C15.5 31.5751 3.73625 26.8151 1.61375 25.8063C0.558751 25.2988 0.0187507 24.8751 -0.00124931 24.4713V28.5138C-0.00124931 28.9176 0.558751 29.3401 1.61375 29.8488C3.73625 30.8651 15.5075 35.6176 17.3625 36.5026C19.225 37.3951 20.5263 37.4076 22.8838 36.1776C25.24 34.9538 36.295 30.4026 38.4313 29.2901C39.5188 28.7301 40 28.2876 40 27.8901V23.9051C40 23.8988 39.9938 23.8988 39.9875 23.8988V23.9001ZM39.9875 17.3113C39.9675 17.6888 39.4663 18.1126 38.4313 18.6588C36.2963 19.7651 25.2413 24.3163 22.8838 25.5401C20.5275 26.7701 19.225 26.7576 17.3625 25.8726C15.5 24.9801 3.73625 20.2276 1.61375 19.2126C0.558751 18.7113 0.0187507 18.2813 -0.00124931 17.8776V21.9201C-0.00124931 22.3238 0.558751 22.7538 1.61375 23.2551C3.73625 24.2713 15.5 29.0238 17.3625 29.9151C19.225 30.8001 20.5263 30.8138 22.8838 29.5901C25.24 28.3601 36.295 23.8151 38.4313 22.7026C39.5188 22.1363 40 21.6938 40 21.2963V17.3113H39.9875V17.3113ZM39.9875 10.4688C40.0075 10.0651 39.48 9.70756 38.405 9.31631C36.3288 8.55506 25.3325 4.18006 23.2288 3.40506C21.1263 2.63631 20.2663 2.66881 17.7925 3.55506C15.3188 4.44756 3.61875 9.03631 1.53625 9.85006C0.495001 10.2601 -0.0137493 10.6376 0.00625069 11.0413V15.0838C0.00625069 15.4876 0.560001 15.9101 1.62125 16.4188C3.7375 17.4351 15.5075 22.1876 17.37 23.0788C19.225 23.9638 20.5338 23.9776 22.8913 22.7463C25.2413 21.5226 36.3025 16.9713 38.4388 15.8651C39.52 15.2988 40.0013 14.8563 40.0013 14.4588V10.4676L39.9875 10.4688ZM14.3225 14.2976L23.5938 12.8788L20.7938 16.9801L14.3225 14.2976ZM34.8238 10.5988L28.75 13.0013L23.2688 10.8338L29.3363 8.43756L34.8238 10.5988ZM18.73 6.62756L17.8313 4.97381L20.6313 6.06756L23.2675 5.20756L22.5513 6.91381L25.24 7.92256L21.7763 8.28006L20.995 10.1488L19.745 8.06506L15.7413 7.70756L18.73 6.62756ZM11.8225 8.96506C14.5638 8.96506 16.7775 9.82506 16.7775 10.8788C16.7775 11.9401 14.5575 12.7988 11.8225 12.7988C9.0875 12.7988 6.8675 11.9388 6.8675 10.8788C6.8675 9.82381 9.0875 8.96506 11.8225 8.96506Z" fill="white"/>
</g>
<defs>
<clipPath id="clip0_2_151">
<rect width="40" height="40" fill="white"/>
</clipPath>
</defs>
</svg>
