<svg width="40" height="40" viewBox="0 0 40 40" fill="none" xmlns="http://www.w3.org/2000/svg">
<path d="M0 20V40H40V0H0V20ZM32.2325 18.405C33.1914 18.6308 34.0629 19.1332 34.7388 19.85C35.1038 20.24 35.65 20.9563 35.6962 21.1325C35.7087 21.185 33.9713 22.35 32.9163 23.0012C32.8775 23.0275 32.7213 22.865 32.5513 22.61C32.0375 21.8612 31.4962 21.5362 30.67 21.4775C29.4587 21.3987 28.6775 22.0313 28.6838 23.0925C28.6774 23.3522 28.7354 23.6094 28.8525 23.8412C29.12 24.395 29.6213 24.7263 31.17 25.3975C34.035 26.6275 35.2587 27.4413 36.02 28.5938C36.8725 29.8825 37.0612 31.94 36.4887 33.4763C35.8512 35.1363 34.275 36.2688 32.0613 36.64C31.3775 36.7638 29.75 36.7437 29.0138 36.6075C27.4063 36.3212 25.8825 35.5262 24.945 34.485C24.5737 34.0812 23.8575 33.02 23.9037 32.9487C23.9237 32.9225 24.0863 32.8187 24.2688 32.7137L25.7538 31.8537L26.9062 31.1838L27.1475 31.5412C27.4863 32.055 28.2212 32.7587 28.665 32.9925C29.9412 33.67 31.6925 33.5725 32.5588 32.7975C32.91 32.505 33.1063 32.055 33.08 31.6C33.08 31.1375 33.0213 30.93 32.78 30.5837C32.4675 30.1412 31.8362 29.7638 30.0325 28.9825C27.9687 28.09 27.0763 27.5438 26.27 26.665C25.7625 26.0866 25.3871 25.4045 25.17 24.6662C25.02 24.1 24.9813 22.68 25.0988 22.1137C25.5225 20.115 27.0325 18.7287 29.2 18.3187C29.9038 18.1825 31.5438 18.2337 32.2338 18.4037L32.2325 18.405ZM22.845 20.0787L22.8575 21.7125H17.6488V36.5112H13.9637V21.7125H8.7625V20.1113C8.7625 19.2188 8.7825 18.4775 8.8075 18.4575C8.8275 18.4312 11.9913 18.4187 15.8325 18.425L22.825 18.445L22.845 20.0787Z" fill="white"/>
</svg>
