<svg width="40" height="40" viewBox="0 0 40 40" fill="none" xmlns="http://www.w3.org/2000/svg">
<path d="M10 15.9896C11.333 10.6427 14.667 7.96875 20 7.96875C28 7.96875 29 13.9844 33 14.987C35.667 15.6557 38 14.6531 40 11.9791C38.667 17.326 35.333 20 30 20C22 20 21 13.9844 17 12.9818C14.333 12.313 12 13.3156 10 15.9896ZM0 28.0209C1.33297 22.674 4.66703 20 10 20C18 20 19 26.0156 23 27.0182C25.667 27.687 28 26.6844 30 24.0104C28.667 29.3573 25.333 32.0312 20 32.0312C12 32.0312 11 26.0156 7 25.013C4.33297 24.3443 2 25.3469 0 28.0209Z" fill="white"/>
</svg>
