<svg width="362" height="143" viewBox="0 0 362 143" fill="none" xmlns="http://www.w3.org/2000/svg">
<g filter="url(#filter0_bi_1_7)">
<path d="M66.712 0.799995V68H44.056V43.232H23.128V68H0.472V0.799995H23.128V24.608H44.056V0.799995H66.712ZM123.42 56.288H97.8843L93.3723 68H70.3322L99.7083 0.799995H121.98L151.356 68H127.932L123.42 56.288ZM117.18 39.968L110.652 23.072L104.124 39.968H117.18ZM187.324 0.799995C193.532 0.799995 198.94 1.824 203.548 3.872C208.156 5.92 211.708 8.864 214.204 12.704C216.7 16.544 217.948 21.024 217.948 26.144C217.948 31.264 216.7 35.744 214.204 39.584C211.708 43.424 208.156 46.368 203.548 48.416C198.94 50.464 193.532 51.488 187.324 51.488H177.628V68H154.972V0.799995H187.324ZM185.884 34.016C188.956 34.016 191.26 33.344 192.796 32C194.332 30.592 195.1 28.64 195.1 26.144C195.1 23.648 194.332 21.728 192.796 20.384C191.26 18.976 188.956 18.272 185.884 18.272H177.628V34.016H185.884ZM257.73 0.799995C263.938 0.799995 269.346 1.824 273.954 3.872C278.562 5.92 282.114 8.864 284.61 12.704C287.106 16.544 288.354 21.024 288.354 26.144C288.354 31.264 287.106 35.744 284.61 39.584C282.114 43.424 278.562 46.368 273.954 48.416C269.346 50.464 263.938 51.488 257.73 51.488H248.034V68H225.378V0.799995H257.73ZM256.29 34.016C259.362 34.016 261.666 33.344 263.202 32C264.738 30.592 265.506 28.64 265.506 26.144C265.506 23.648 264.738 21.728 263.202 20.384C261.666 18.976 259.362 18.272 256.29 18.272H248.034V34.016H256.29ZM335.721 43.616V68H313.065V43.328L287.72 0.799995H311.625L325.353 24.032L339.177 0.799995H361.065L335.721 43.616ZM66.712 73.8V141H44.056V116.232H23.128V141H0.472V73.8H23.128V97.608H44.056V73.8H66.712ZM112.86 142.536C105.628 142.536 99.1323 141.032 93.3723 138.024C87.6123 135.016 83.1003 130.856 79.8363 125.544C76.5723 120.168 74.9403 114.12 74.9403 107.4C74.9403 100.68 76.5723 94.664 79.8363 89.352C83.1003 83.976 87.6123 79.784 93.3723 76.776C99.1323 73.768 105.628 72.264 112.86 72.264C120.092 72.264 126.588 73.768 132.348 76.776C138.108 79.784 142.62 83.976 145.884 89.352C149.148 94.664 150.78 100.68 150.78 107.4C150.78 114.12 149.148 120.168 145.884 125.544C142.62 130.856 138.108 135.016 132.348 138.024C126.588 141.032 120.092 142.536 112.86 142.536ZM112.86 124.2C115.676 124.2 118.204 123.528 120.444 122.184C122.748 120.776 124.572 118.824 125.916 116.328C127.26 113.768 127.932 110.792 127.932 107.4C127.932 104.008 127.26 101.064 125.916 98.568C124.572 96.008 122.748 94.056 120.444 92.712C118.204 91.304 115.676 90.6 112.86 90.6C110.044 90.6 107.484 91.304 105.18 92.712C102.94 94.056 101.148 96.008 99.8043 98.568C98.4603 101.064 97.7883 104.008 97.7883 107.4C97.7883 110.792 98.4603 113.768 99.8043 116.328C101.148 118.824 102.94 120.776 105.18 122.184C107.484 123.528 110.044 124.2 112.86 124.2ZM191.163 142.536C180.859 142.536 172.827 139.752 167.067 134.184C161.307 128.616 158.427 120.808 158.427 110.76V73.8H181.083V110.088C181.083 115.016 181.947 118.6 183.675 120.84C185.467 123.08 188.027 124.2 191.355 124.2C194.683 124.2 197.211 123.08 198.939 120.84C200.731 118.6 201.627 115.016 201.627 110.088V73.8H223.899V110.76C223.899 120.808 221.019 128.616 215.259 134.184C209.499 139.752 201.467 142.536 191.163 142.536ZM259.341 142.536C253.773 142.536 248.333 141.928 243.021 140.712C237.773 139.432 233.452 137.736 230.061 135.624L237.357 119.112C240.557 120.968 244.141 122.472 248.109 123.624C252.077 124.712 255.885 125.256 259.533 125.256C262.669 125.256 264.909 124.968 266.253 124.392C267.597 123.752 268.269 122.824 268.269 121.608C268.269 120.2 267.373 119.144 265.581 118.44C263.853 117.736 260.973 116.968 256.941 116.136C251.757 115.048 247.437 113.896 243.981 112.68C240.525 111.4 237.517 109.352 234.957 106.536C232.397 103.656 231.117 99.784 231.117 94.92C231.117 90.696 232.301 86.856 234.669 83.4C237.037 79.944 240.557 77.224 245.229 75.24C249.965 73.256 255.693 72.264 262.413 72.264C267.021 72.264 271.533 72.776 275.949 73.8C280.429 74.76 284.365 76.2 287.757 78.12L280.941 94.536C274.349 91.208 268.109 89.544 262.221 89.544C256.397 89.544 253.484 90.952 253.484 93.768C253.484 95.112 254.349 96.136 256.077 96.84C257.805 97.48 260.653 98.184 264.621 98.952C269.741 99.912 274.061 101.032 277.581 102.312C281.101 103.528 284.141 105.544 286.701 108.36C289.325 111.176 290.637 115.016 290.637 119.88C290.637 124.104 289.453 127.944 287.085 131.4C284.717 134.792 281.165 137.512 276.429 139.56C271.757 141.544 266.061 142.536 259.341 142.536ZM353.25 123.912V141H297.378V73.8H352.002V90.888H319.65V98.76H348.066V115.08H319.65V123.912H353.25Z" fill="white" fill-opacity="0.5"/>
</g>
<defs>
<filter id="filter0_bi_1_7" x="-63.528" y="-63.2" width="488.593" height="269.736" filterUnits="userSpaceOnUse" color-interpolation-filters="sRGB">
<feFlood flood-opacity="0" result="BackgroundImageFix"/>
<feGaussianBlur in="BackgroundImage" stdDeviation="32"/>
<feComposite in2="SourceAlpha" operator="in" result="effect1_backgroundBlur_1_7"/>
<feBlend mode="normal" in="SourceGraphic" in2="effect1_backgroundBlur_1_7" result="shape"/>
<feColorMatrix in="SourceAlpha" type="matrix" values="0 0 0 0 0 0 0 0 0 0 0 0 0 0 0 0 0 0 127 0" result="hardAlpha"/>
<feOffset dy="-25"/>
<feGaussianBlur stdDeviation="32"/>
<feComposite in2="hardAlpha" operator="arithmetic" k2="-1" k3="1"/>
<feColorMatrix type="matrix" values="0 0 0 0 1 0 0 0 0 1 0 0 0 0 1 0 0 0 0.7 0"/>
<feBlend mode="normal" in2="shape" result="effect2_innerShadow_1_7"/>
</filter>
</defs>
</svg>
