<svg width="746" height="71" viewBox="0 0 746 71" fill="none" xmlns="http://www.w3.org/2000/svg">
<g filter="url(#filter0_bi_1_7)">
<path d="M66.712 1.8V69H44.056V44.232H23.128V69H0.472V1.8H23.128V25.608H44.056V1.8H66.712ZM123.42 57.288H97.8843L93.3723 69H70.3322L99.7083 1.8H121.98L151.356 69H127.932L123.42 57.288ZM117.18 40.968L110.652 24.072L104.124 40.968H117.18ZM187.324 1.8C193.532 1.8 198.94 2.824 203.548 4.872C208.156 6.92 211.708 9.864 214.204 13.704C216.7 17.544 217.948 22.024 217.948 27.144C217.948 32.264 216.7 36.744 214.204 40.584C211.708 44.424 208.156 47.368 203.548 49.416C198.94 51.464 193.532 52.488 187.324 52.488H177.628V69H154.972V1.8H187.324ZM185.884 35.016C188.956 35.016 191.26 34.344 192.796 33C194.332 31.592 195.1 29.64 195.1 27.144C195.1 24.648 194.332 22.728 192.796 21.384C191.26 19.976 188.956 19.272 185.884 19.272H177.628V35.016H185.884ZM257.73 1.8C263.938 1.8 269.346 2.824 273.954 4.872C278.562 6.92 282.114 9.864 284.61 13.704C287.106 17.544 288.354 22.024 288.354 27.144C288.354 32.264 287.106 36.744 284.61 40.584C282.114 44.424 278.562 47.368 273.954 49.416C269.346 51.464 263.938 52.488 257.73 52.488H248.034V69H225.378V1.8H257.73ZM256.29 35.016C259.362 35.016 261.666 34.344 263.202 33C264.738 31.592 265.506 29.64 265.506 27.144C265.506 24.648 264.738 22.728 263.202 21.384C261.666 19.976 259.362 19.272 256.29 19.272H248.034V35.016H256.29ZM335.721 44.616V69H313.065V44.328L287.72 1.8H311.625L325.353 25.032L339.177 1.8H361.065L335.721 44.616ZM458.962 1.8V69H436.306V44.232H415.378V69H392.722V1.8H415.378V25.608H436.306V1.8H458.962ZM505.11 70.536C497.878 70.536 491.382 69.032 485.622 66.024C479.862 63.016 475.35 58.856 472.086 53.544C468.822 48.168 467.19 42.12 467.19 35.4C467.19 28.68 468.822 22.664 472.086 17.352C475.35 11.976 479.862 7.784 485.622 4.776C491.382 1.768 497.878 0.263998 505.11 0.263998C512.342 0.263998 518.838 1.768 524.598 4.776C530.358 7.784 534.87 11.976 538.134 17.352C541.398 22.664 543.03 28.68 543.03 35.4C543.03 42.12 541.398 48.168 538.134 53.544C534.87 58.856 530.358 63.016 524.598 66.024C518.838 69.032 512.342 70.536 505.11 70.536ZM505.11 52.2C507.926 52.2 510.454 51.528 512.694 50.184C514.998 48.776 516.822 46.824 518.166 44.328C519.51 41.768 520.182 38.792 520.182 35.4C520.182 32.008 519.51 29.064 518.166 26.568C516.822 24.008 514.998 22.056 512.694 20.712C510.454 19.304 507.926 18.6 505.11 18.6C502.294 18.6 499.734 19.304 497.43 20.712C495.19 22.056 493.398 24.008 492.054 26.568C490.71 29.064 490.038 32.008 490.038 35.4C490.038 38.792 490.71 41.768 492.054 44.328C493.398 46.824 495.19 48.776 497.43 50.184C499.734 51.528 502.294 52.2 505.11 52.2ZM583.413 70.536C573.109 70.536 565.077 67.752 559.317 62.184C553.557 56.616 550.677 48.808 550.677 38.76V1.8H573.333V38.088C573.333 43.016 574.197 46.6 575.925 48.84C577.717 51.08 580.277 52.2 583.605 52.2C586.933 52.2 589.461 51.08 591.189 48.84C592.981 46.6 593.877 43.016 593.877 38.088V1.8H616.149V38.76C616.149 48.808 613.269 56.616 607.509 62.184C601.749 67.752 593.717 70.536 583.413 70.536ZM651.591 70.536C646.023 70.536 640.583 69.928 635.271 68.712C630.023 67.432 625.702 65.736 622.311 63.624L629.607 47.112C632.807 48.968 636.391 50.472 640.359 51.624C644.327 52.712 648.135 53.256 651.783 53.256C654.919 53.256 657.159 52.968 658.503 52.392C659.847 51.752 660.519 50.824 660.519 49.608C660.519 48.2 659.623 47.144 657.831 46.44C656.103 45.736 653.223 44.968 649.191 44.136C644.007 43.048 639.687 41.896 636.231 40.68C632.775 39.4 629.767 37.352 627.207 34.536C624.647 31.656 623.367 27.784 623.367 22.92C623.367 18.696 624.551 14.856 626.919 11.4C629.287 7.944 632.807 5.224 637.479 3.23999C642.215 1.256 647.943 0.263998 654.663 0.263998C659.271 0.263998 663.783 0.775997 668.199 1.8C672.679 2.75999 676.615 4.2 680.007 6.12L673.191 22.536C666.599 19.208 660.359 17.544 654.471 17.544C648.647 17.544 645.734 18.952 645.734 21.768C645.734 23.112 646.599 24.136 648.327 24.84C650.055 25.48 652.903 26.184 656.871 26.952C661.991 27.912 666.311 29.032 669.831 30.312C673.351 31.528 676.391 33.544 678.951 36.36C681.575 39.176 682.887 43.016 682.887 47.88C682.887 52.104 681.703 55.944 679.335 59.4C676.967 62.792 673.415 65.512 668.679 67.56C664.007 69.544 658.311 70.536 651.591 70.536ZM745.5 51.912V69H689.628V1.8H744.252V18.888H711.9V26.76H740.316V43.08H711.9V51.912H745.5Z" fill="white" fill-opacity="0.5"/>
</g>
<defs>
<filter id="filter0_bi_1_7" x="-63.528" y="-63.736" width="873.028" height="198.272" filterUnits="userSpaceOnUse" color-interpolation-filters="sRGB">
<feFlood flood-opacity="0" result="BackgroundImageFix"/>
<feGaussianBlur in="BackgroundImage" stdDeviation="32"/>
<feComposite in2="SourceAlpha" operator="in" result="effect1_backgroundBlur_1_7"/>
<feBlend mode="normal" in="SourceGraphic" in2="effect1_backgroundBlur_1_7" result="shape"/>
<feColorMatrix in="SourceAlpha" type="matrix" values="0 0 0 0 0 0 0 0 0 0 0 0 0 0 0 0 0 0 127 0" result="hardAlpha"/>
<feOffset dy="-25"/>
<feGaussianBlur stdDeviation="32"/>
<feComposite in2="hardAlpha" operator="arithmetic" k2="-1" k3="1"/>
<feColorMatrix type="matrix" values="0 0 0 0 1 0 0 0 0 1 0 0 0 0 1 0 0 0 0.7 0"/>
<feBlend mode="normal" in2="shape" result="effect2_innerShadow_1_7"/>
</filter>
</defs>
</svg>
