<svg width="718" height="71" viewBox="0 0 718 71" fill="none" xmlns="http://www.w3.org/2000/svg">
<g filter="url(#filter0_bi_2_103)">
<path d="M66.712 1.8V69H48.088L22.552 38.472V69H0.472V1.8H19.096L44.632 32.328V1.8H66.712ZM112.86 70.536C105.628 70.536 99.1323 69.032 93.3723 66.024C87.6123 63.016 83.1003 58.856 79.8363 53.544C76.5723 48.168 74.9403 42.12 74.9403 35.4C74.9403 28.68 76.5723 22.664 79.8363 17.352C83.1003 11.976 87.6123 7.784 93.3723 4.776C99.1323 1.768 105.628 0.263998 112.86 0.263998C120.092 0.263998 126.588 1.768 132.348 4.776C138.108 7.784 142.62 11.976 145.884 17.352C149.148 22.664 150.78 28.68 150.78 35.4C150.78 42.12 149.148 48.168 145.884 53.544C142.62 58.856 138.108 63.016 132.348 66.024C126.588 69.032 120.092 70.536 112.86 70.536ZM112.86 52.2C115.676 52.2 118.204 51.528 120.444 50.184C122.748 48.776 124.572 46.824 125.916 44.328C127.26 41.768 127.932 38.792 127.932 35.4C127.932 32.008 127.26 29.064 125.916 26.568C124.572 24.008 122.748 22.056 120.444 20.712C118.204 19.304 115.676 18.6 112.86 18.6C110.044 18.6 107.484 19.304 105.18 20.712C102.94 22.056 101.148 24.008 99.8043 26.568C98.4603 29.064 97.7883 32.008 97.7883 35.4C97.7883 38.792 98.4603 41.768 99.8043 44.328C101.148 46.824 102.94 48.776 105.18 50.184C107.484 51.528 110.044 52.2 112.86 52.2ZM225.243 1.8V69H206.619L181.083 38.472V69H159.003V1.8H177.627L203.163 32.328V1.8H225.243ZM279.533 19.368H259.853V1.8H321.869V19.368H302.189V69H279.533V19.368ZM383.625 51.912V69H327.753V1.8H382.377V18.888H350.025V26.76H378.441V43.08H350.025V51.912H383.625ZM427.099 70.536C419.995 70.536 413.595 69.064 407.899 66.12C402.203 63.112 397.723 58.952 394.459 53.64C391.259 48.264 389.659 42.184 389.659 35.4C389.659 28.616 391.259 22.568 394.459 17.256C397.723 11.88 402.203 7.72 407.899 4.776C413.595 1.768 419.995 0.263998 427.099 0.263998C433.627 0.263998 439.451 1.416 444.571 3.72C449.691 6.024 453.915 9.352 457.243 13.704L442.939 26.472C438.779 21.224 433.883 18.6 428.251 18.6C423.515 18.6 419.707 20.136 416.827 23.208C413.947 26.216 412.507 30.28 412.507 35.4C412.507 40.52 413.947 44.616 416.827 47.688C419.707 50.696 423.515 52.2 428.251 52.2C433.883 52.2 438.779 49.576 442.939 44.328L457.243 57.096C453.915 61.448 449.691 64.776 444.571 67.08C439.451 69.384 433.627 70.536 427.099 70.536ZM530.025 1.8V69H507.369V44.232H486.441V69H463.785V1.8H486.441V25.608H507.369V1.8H530.025ZM629.722 69L629.53 38.376L614.938 62.952H604.954L590.362 39.432V69H569.722V1.8H588.346L610.234 37.608L631.546 1.8H650.17L650.362 69H629.722ZM717.188 51.912V69H661.316V1.8H715.94V18.888H683.588V26.76H712.004V43.08H683.588V51.912H717.188Z" fill="white" fill-opacity="0.5"/>
</g>
<defs>
<filter id="filter0_bi_2_103" x="-63.528" y="-63.736" width="844.716" height="198.272" filterUnits="userSpaceOnUse" color-interpolation-filters="sRGB">
<feFlood flood-opacity="0" result="BackgroundImageFix"/>
<feGaussianBlur in="BackgroundImage" stdDeviation="32"/>
<feComposite in2="SourceAlpha" operator="in" result="effect1_backgroundBlur_2_103"/>
<feBlend mode="normal" in="SourceGraphic" in2="effect1_backgroundBlur_2_103" result="shape"/>
<feColorMatrix in="SourceAlpha" type="matrix" values="0 0 0 0 0 0 0 0 0 0 0 0 0 0 0 0 0 0 127 0" result="hardAlpha"/>
<feOffset dy="-25"/>
<feGaussianBlur stdDeviation="32"/>
<feComposite in2="hardAlpha" operator="arithmetic" k2="-1" k3="1"/>
<feColorMatrix type="matrix" values="0 0 0 0 1 0 0 0 0 1 0 0 0 0 1 0 0 0 0.7 0"/>
<feBlend mode="normal" in2="shape" result="effect2_innerShadow_2_103"/>
</filter>
</defs>
</svg>
