<svg width="271" height="217" viewBox="0 0 271 217" fill="none" xmlns="http://www.w3.org/2000/svg">
<g filter="url(#filter0_bi_2_103)">
<path d="M71.712 1.8V69H53.088L27.552 38.472V69H5.472V1.8H24.096L49.632 32.328V1.8H71.712ZM117.86 70.536C110.628 70.536 104.132 69.032 98.3723 66.024C92.6123 63.016 88.1003 58.856 84.8363 53.544C81.5723 48.168 79.9403 42.12 79.9403 35.4C79.9403 28.68 81.5723 22.664 84.8363 17.352C88.1003 11.976 92.6123 7.784 98.3723 4.776C104.132 1.768 110.628 0.263998 117.86 0.263998C125.092 0.263998 131.588 1.768 137.348 4.776C143.108 7.784 147.62 11.976 150.884 17.352C154.148 22.664 155.78 28.68 155.78 35.4C155.78 42.12 154.148 48.168 150.884 53.544C147.62 58.856 143.108 63.016 137.348 66.024C131.588 69.032 125.092 70.536 117.86 70.536ZM117.86 52.2C120.676 52.2 123.204 51.528 125.444 50.184C127.748 48.776 129.572 46.824 130.916 44.328C132.26 41.768 132.932 38.792 132.932 35.4C132.932 32.008 132.26 29.064 130.916 26.568C129.572 24.008 127.748 22.056 125.444 20.712C123.204 19.304 120.676 18.6 117.86 18.6C115.044 18.6 112.484 19.304 110.18 20.712C107.94 22.056 106.148 24.008 104.804 26.568C103.46 29.064 102.788 32.008 102.788 35.4C102.788 38.792 103.46 41.768 104.804 44.328C106.148 46.824 107.94 48.776 110.18 50.184C112.484 51.528 115.044 52.2 117.86 52.2ZM230.243 1.8V69H211.619L186.083 38.472V69H164.003V1.8H182.627L208.163 32.328V1.8H230.243ZM20.064 93.368H0.384V75.8H62.4V93.368H42.72V143H20.064V93.368ZM124.157 125.912V143H68.2845V75.8H122.909V92.888H90.5565V100.76H118.973V117.08H90.5565V125.912H124.157ZM167.63 144.536C160.526 144.536 154.126 143.064 148.43 140.12C142.734 137.112 138.254 132.952 134.99 127.64C131.79 122.264 130.19 116.184 130.19 109.4C130.19 102.616 131.79 96.568 134.99 91.256C138.254 85.88 142.734 81.72 148.43 78.776C154.126 75.768 160.526 74.264 167.63 74.264C174.158 74.264 179.982 75.416 185.102 77.72C190.222 80.024 194.446 83.352 197.774 87.704L183.47 100.472C179.31 95.224 174.414 92.6 168.782 92.6C164.046 92.6 160.238 94.136 157.358 97.208C154.478 100.216 153.038 104.28 153.038 109.4C153.038 114.52 154.478 118.616 157.358 121.688C160.238 124.696 164.046 126.2 168.782 126.2C174.414 126.2 179.31 123.576 183.47 118.328L197.774 131.096C194.446 135.448 190.222 138.776 185.102 141.08C179.982 143.384 174.158 144.536 167.63 144.536ZM270.556 75.8V143H247.9V118.232H226.972V143H204.316V75.8H226.972V99.608H247.9V75.8H270.556ZM65.472 217L65.28 186.376L50.688 210.952H40.704L26.112 187.432V217H5.472V149.8H24.096L45.984 185.608L67.296 149.8H85.92L86.112 217H65.472ZM152.938 199.912V217H97.0658V149.8H151.69V166.888H119.338V174.76H147.754V191.08H119.338V199.912H152.938Z" fill="white" fill-opacity="0.5"/>
</g>
<defs>
<filter id="filter0_bi_2_103" x="-63.616" y="-63.736" width="398.172" height="344.736" filterUnits="userSpaceOnUse" color-interpolation-filters="sRGB">
<feFlood flood-opacity="0" result="BackgroundImageFix"/>
<feGaussianBlur in="BackgroundImage" stdDeviation="32"/>
<feComposite in2="SourceAlpha" operator="in" result="effect1_backgroundBlur_2_103"/>
<feBlend mode="normal" in="SourceGraphic" in2="effect1_backgroundBlur_2_103" result="shape"/>
<feColorMatrix in="SourceAlpha" type="matrix" values="0 0 0 0 0 0 0 0 0 0 0 0 0 0 0 0 0 0 127 0" result="hardAlpha"/>
<feOffset dy="-25"/>
<feGaussianBlur stdDeviation="32"/>
<feComposite in2="hardAlpha" operator="arithmetic" k2="-1" k3="1"/>
<feColorMatrix type="matrix" values="0 0 0 0 1 0 0 0 0 1 0 0 0 0 1 0 0 0 0.7 0"/>
<feBlend mode="normal" in2="shape" result="effect2_innerShadow_2_103"/>
</filter>
</defs>
</svg>
